<mxfile host="app.diagrams.net" modified="2021-12-09T17:56:58.208Z" agent="5.0 (Windows)" etag="aYAmIHoDQ6T7-s-E6bop" version="15.9.4" type="github">
  <diagram id="prtHgNgQTEPvFCAcTncT" name="Page-1">
    <mxGraphModel dx="1038" dy="689" grid="1" gridSize="10" guides="1" tooltips="1" connect="1" arrows="1" fold="1" page="1" pageScale="1" pageWidth="1169" pageHeight="1654" math="0" shadow="0">
      <root>
        <mxCell id="0" />
        <mxCell id="1" parent="0" />
        <mxCell id="jSpEztQt3kvFXsunmsol-1" value="Essensdatenbank mit Kalorieneinträgen und Essensvorlieben(vegan, vegetarisch" style="rounded=0;whiteSpace=wrap;html=1;" parent="1" vertex="1">
          <mxGeometry x="30" y="20" width="230" height="90" as="geometry" />
        </mxCell>
        <mxCell id="jSpEztQt3kvFXsunmsol-2" value="Datenbank mit Beispiel BMI-Daten und entspr tgl. Kalorienwerten" style="rounded=0;whiteSpace=wrap;html=1;fontSize=12;" parent="1" vertex="1">
          <mxGeometry x="300" y="20" width="240" height="90" as="geometry" />
        </mxCell>
        <mxCell id="bd9UbLxYGrV-jyAa_QuS-2" style="edgeStyle=orthogonalEdgeStyle;rounded=0;orthogonalLoop=1;jettySize=auto;html=1;" parent="1" source="jSpEztQt3kvFXsunmsol-4" target="bd9UbLxYGrV-jyAa_QuS-3" edge="1">
          <mxGeometry relative="1" as="geometry">
            <mxPoint x="265.0000000000001" y="477.5" as="targetPoint" />
          </mxGeometry>
        </mxCell>
        <mxCell id="jSpEztQt3kvFXsunmsol-4" value="&lt;div&gt;&amp;nbsp;&amp;nbsp;&amp;nbsp; Daten zur Person&lt;/div&gt;&lt;div&gt;Name, Größe,&lt;/div&gt;&lt;div&gt;Gewicht, Essenvorliebe&lt;/div&gt;&lt;div&gt;&lt;br&gt;&lt;/div&gt;&lt;div&gt;E&amp;nbsp;&amp;nbsp;&amp;nbsp;&amp;nbsp; &amp;nbsp; &amp;nbsp; &amp;nbsp; &amp;nbsp;&amp;nbsp;&amp;nbsp;&amp;nbsp;&amp;nbsp; &amp;nbsp; &amp;nbsp; &amp;nbsp;&amp;nbsp; &amp;nbsp;&amp;nbsp;&amp;nbsp;&amp;nbsp;&amp;nbsp;&amp;nbsp;&amp;nbsp;&amp;nbsp;&amp;nbsp;&amp;nbsp;&amp;nbsp;&amp;nbsp;&amp;nbsp;&amp;nbsp;&amp;nbsp;&amp;nbsp;&amp;nbsp; &lt;br&gt;&lt;/div&gt;" style="shape=parallelogram;perimeter=parallelogramPerimeter;whiteSpace=wrap;html=1;fixedSize=1;fontSize=12;" parent="1" vertex="1">
          <mxGeometry x="60" y="442.5" width="145" height="70" as="geometry" />
        </mxCell>
        <mxCell id="bd9UbLxYGrV-jyAa_QuS-1" value="&lt;div&gt;Datenbank mit Personeneingaben:&lt;/div&gt;&lt;div&gt;Name, Größe, Gew., BMI&lt;br&gt;&lt;/div&gt;" style="rounded=0;whiteSpace=wrap;html=1;" parent="1" vertex="1">
          <mxGeometry x="580" y="20" width="220" height="90" as="geometry" />
        </mxCell>
        <mxCell id="bd9UbLxYGrV-jyAa_QuS-5" value="" style="edgeStyle=orthogonalEdgeStyle;rounded=0;orthogonalLoop=1;jettySize=auto;html=1;" parent="1" source="bd9UbLxYGrV-jyAa_QuS-3" target="bd9UbLxYGrV-jyAa_QuS-4" edge="1">
          <mxGeometry relative="1" as="geometry" />
        </mxCell>
        <mxCell id="bd9UbLxYGrV-jyAa_QuS-3" value="Daten speichern in Tab3" style="rounded=0;whiteSpace=wrap;html=1;" parent="1" vertex="1">
          <mxGeometry x="265.0000000000001" y="447.5" width="120" height="60" as="geometry" />
        </mxCell>
        <mxCell id="bd9UbLxYGrV-jyAa_QuS-15" value="" style="edgeStyle=orthogonalEdgeStyle;rounded=0;orthogonalLoop=1;jettySize=auto;html=1;" parent="1" source="bd9UbLxYGrV-jyAa_QuS-4" target="bd9UbLxYGrV-jyAa_QuS-14" edge="1">
          <mxGeometry relative="1" as="geometry" />
        </mxCell>
        <mxCell id="bd9UbLxYGrV-jyAa_QuS-4" value="Berechnung BMI, Verknüpfung mit tgl Kalorienwerten" style="whiteSpace=wrap;html=1;rounded=0;" parent="1" vertex="1">
          <mxGeometry x="465.0000000000001" y="447.5" width="120" height="60" as="geometry" />
        </mxCell>
        <mxCell id="bd9UbLxYGrV-jyAa_QuS-17" value="" style="edgeStyle=orthogonalEdgeStyle;rounded=0;orthogonalLoop=1;jettySize=auto;html=1;" parent="1" source="bd9UbLxYGrV-jyAa_QuS-14" target="bd9UbLxYGrV-jyAa_QuS-16" edge="1">
          <mxGeometry relative="1" as="geometry" />
        </mxCell>
        <mxCell id="bd9UbLxYGrV-jyAa_QuS-14" value="&lt;div&gt;Daten zur heutigen Nahrungsmittel-einnahme&lt;/div&gt;&lt;div&gt;E&amp;nbsp;&amp;nbsp;&amp;nbsp;&amp;nbsp;&amp;nbsp;&amp;nbsp;&amp;nbsp;&amp;nbsp;&amp;nbsp;&amp;nbsp;&amp;nbsp;&amp;nbsp;&amp;nbsp;&amp;nbsp;&amp;nbsp;&amp;nbsp;&amp;nbsp;&amp;nbsp;&amp;nbsp;&amp;nbsp;&amp;nbsp;&amp;nbsp;&amp;nbsp;&amp;nbsp;&amp;nbsp;&amp;nbsp;&amp;nbsp;&amp;nbsp;&amp;nbsp;&amp;nbsp;&amp;nbsp; &lt;br&gt;&lt;/div&gt;" style="shape=parallelogram;perimeter=parallelogramPerimeter;whiteSpace=wrap;html=1;fixedSize=1;rounded=0;" parent="1" vertex="1">
          <mxGeometry x="665.0000000000001" y="447.5" width="120" height="60" as="geometry" />
        </mxCell>
        <mxCell id="bd9UbLxYGrV-jyAa_QuS-19" value="" style="edgeStyle=orthogonalEdgeStyle;rounded=0;orthogonalLoop=1;jettySize=auto;html=1;" parent="1" source="bd9UbLxYGrV-jyAa_QuS-16" target="bd9UbLxYGrV-jyAa_QuS-18" edge="1">
          <mxGeometry relative="1" as="geometry" />
        </mxCell>
        <mxCell id="bd9UbLxYGrV-jyAa_QuS-16" value="Berechnung der möglichen Kalorien und Aufbereitung der Nahrungsmittelmöglichkeit unter Betrachtung der Essensvorlieben" style="whiteSpace=wrap;html=1;rounded=0;" parent="1" vertex="1">
          <mxGeometry x="865" y="430" width="180" height="95" as="geometry" />
        </mxCell>
        <mxCell id="bd9UbLxYGrV-jyAa_QuS-23" value="" style="edgeStyle=orthogonalEdgeStyle;rounded=0;orthogonalLoop=1;jettySize=auto;html=1;" parent="1" source="bd9UbLxYGrV-jyAa_QuS-18" target="bd9UbLxYGrV-jyAa_QuS-22" edge="1">
          <mxGeometry relative="1" as="geometry" />
        </mxCell>
        <mxCell id="bd9UbLxYGrV-jyAa_QuS-18" value="&lt;div&gt;&lt;br&gt;&lt;/div&gt;&lt;div&gt;&lt;br&gt;&lt;/div&gt;&lt;div&gt;&lt;br&gt;&lt;/div&gt;&lt;div&gt;&lt;br&gt;&lt;/div&gt;&lt;br&gt;&lt;div&gt;verbleibende cal und Nahrungsmöglichkeiten&lt;/div&gt;&lt;div&gt;&lt;br&gt;&lt;/div&gt;&lt;div&gt;&amp;nbsp;&amp;nbsp;&amp;nbsp;&amp;nbsp; A&amp;nbsp;&amp;nbsp;&amp;nbsp;&amp;nbsp;&amp;nbsp;&amp;nbsp;&amp;nbsp;&amp;nbsp;&amp;nbsp;&amp;nbsp;&amp;nbsp;&amp;nbsp;&amp;nbsp;&amp;nbsp;&amp;nbsp;&amp;nbsp;&amp;nbsp;&amp;nbsp;&amp;nbsp;&amp;nbsp;&amp;nbsp;&amp;nbsp;&amp;nbsp;&amp;nbsp;&amp;nbsp;&amp;nbsp;&amp;nbsp;&amp;nbsp;&amp;nbsp;&amp;nbsp;&amp;nbsp;&amp;nbsp;&amp;nbsp;&amp;nbsp;&amp;nbsp;&amp;nbsp;&amp;nbsp;&amp;nbsp;&amp;nbsp;&amp;nbsp;&amp;nbsp; &lt;br&gt;&lt;/div&gt;&lt;div&gt;&lt;br&gt;&lt;/div&gt;&lt;div&gt;&lt;br&gt;&lt;/div&gt;" style="shape=parallelogram;perimeter=parallelogramPerimeter;whiteSpace=wrap;html=1;fixedSize=1;rounded=0;" parent="1" vertex="1">
          <mxGeometry x="882.5" y="622.5" width="145" height="117.5" as="geometry" />
        </mxCell>
        <mxCell id="bd9UbLxYGrV-jyAa_QuS-21" style="edgeStyle=orthogonalEdgeStyle;rounded=0;orthogonalLoop=1;jettySize=auto;html=1;" parent="1" source="bd9UbLxYGrV-jyAa_QuS-20" edge="1">
          <mxGeometry relative="1" as="geometry">
            <mxPoint x="133" y="280" as="targetPoint" />
          </mxGeometry>
        </mxCell>
        <mxCell id="bd9UbLxYGrV-jyAa_QuS-20" value="Programstart" style="ellipse;whiteSpace=wrap;html=1;" parent="1" vertex="1">
          <mxGeometry x="72.5" y="140" width="120" height="80" as="geometry" />
        </mxCell>
        <mxCell id="bd9UbLxYGrV-jyAa_QuS-22" value="Ende" style="ellipse;whiteSpace=wrap;html=1;rounded=0;" parent="1" vertex="1">
          <mxGeometry x="695" y="651.25" width="120" height="60" as="geometry" />
        </mxCell>
        <mxCell id="4z2k_rnHSHbh8kKNKrE--2" value="" style="edgeStyle=orthogonalEdgeStyle;rounded=0;orthogonalLoop=1;jettySize=auto;html=1;" edge="1" parent="1" target="jSpEztQt3kvFXsunmsol-4">
          <mxGeometry relative="1" as="geometry">
            <mxPoint x="132.5" y="340" as="sourcePoint" />
          </mxGeometry>
        </mxCell>
        <mxCell id="4z2k_rnHSHbh8kKNKrE--4" value="nein" style="edgeLabel;html=1;align=center;verticalAlign=middle;resizable=0;points=[];" vertex="1" connectable="0" parent="4z2k_rnHSHbh8kKNKrE--2">
          <mxGeometry x="0.2293" y="2" relative="1" as="geometry">
            <mxPoint as="offset" />
          </mxGeometry>
        </mxCell>
        <mxCell id="4z2k_rnHSHbh8kKNKrE--6" value="ja" style="edgeStyle=orthogonalEdgeStyle;rounded=0;orthogonalLoop=1;jettySize=auto;html=1;" edge="1" parent="1" source="4z2k_rnHSHbh8kKNKrE--3" target="4z2k_rnHSHbh8kKNKrE--5">
          <mxGeometry relative="1" as="geometry" />
        </mxCell>
        <mxCell id="4z2k_rnHSHbh8kKNKrE--3" value="Existiert User?" style="rhombus;whiteSpace=wrap;html=1;" vertex="1" parent="1">
          <mxGeometry x="92.5" y="280" width="80" height="80" as="geometry" />
        </mxCell>
        <mxCell id="4z2k_rnHSHbh8kKNKrE--8" value="" style="edgeStyle=orthogonalEdgeStyle;rounded=0;orthogonalLoop=1;jettySize=auto;html=1;" edge="1" parent="1" source="4z2k_rnHSHbh8kKNKrE--5" target="4z2k_rnHSHbh8kKNKrE--7">
          <mxGeometry relative="1" as="geometry" />
        </mxCell>
        <mxCell id="4z2k_rnHSHbh8kKNKrE--5" value="&lt;div&gt;Auswahl aus gespeicherten &lt;br&gt;&lt;/div&gt;&lt;div&gt;Usern&lt;/div&gt;" style="shape=parallelogram;perimeter=parallelogramPerimeter;whiteSpace=wrap;html=1;fixedSize=1;" vertex="1" parent="1">
          <mxGeometry x="232.5" y="290" width="120" height="60" as="geometry" />
        </mxCell>
        <mxCell id="4z2k_rnHSHbh8kKNKrE--9" style="edgeStyle=orthogonalEdgeStyle;rounded=0;orthogonalLoop=1;jettySize=auto;html=1;entryX=0.558;entryY=-0.042;entryDx=0;entryDy=0;entryPerimeter=0;" edge="1" parent="1" source="4z2k_rnHSHbh8kKNKrE--7" target="bd9UbLxYGrV-jyAa_QuS-14">
          <mxGeometry relative="1" as="geometry" />
        </mxCell>
        <mxCell id="4z2k_rnHSHbh8kKNKrE--10" value="nein" style="edgeLabel;html=1;align=center;verticalAlign=middle;resizable=0;points=[];" vertex="1" connectable="0" parent="4z2k_rnHSHbh8kKNKrE--9">
          <mxGeometry x="-0.0354" y="-1" relative="1" as="geometry">
            <mxPoint x="1" as="offset" />
          </mxGeometry>
        </mxCell>
        <mxCell id="4z2k_rnHSHbh8kKNKrE--11" style="edgeStyle=orthogonalEdgeStyle;rounded=0;orthogonalLoop=1;jettySize=auto;html=1;entryX=0.5;entryY=0;entryDx=0;entryDy=0;" edge="1" parent="1" source="4z2k_rnHSHbh8kKNKrE--7" target="bd9UbLxYGrV-jyAa_QuS-4">
          <mxGeometry relative="1" as="geometry" />
        </mxCell>
        <mxCell id="4z2k_rnHSHbh8kKNKrE--12" value="ja" style="edgeLabel;html=1;align=center;verticalAlign=middle;resizable=0;points=[];" vertex="1" connectable="0" parent="4z2k_rnHSHbh8kKNKrE--11">
          <mxGeometry x="0.205" y="-1" relative="1" as="geometry">
            <mxPoint as="offset" />
          </mxGeometry>
        </mxCell>
        <mxCell id="4z2k_rnHSHbh8kKNKrE--7" value="Verändertes Gewicht?" style="rhombus;whiteSpace=wrap;html=1;" vertex="1" parent="1">
          <mxGeometry x="485" y="280" width="80" height="80" as="geometry" />
        </mxCell>
      </root>
    </mxGraphModel>
  </diagram>
</mxfile>
